<svg id="Gruppe_821" data-name="Gruppe 821" xmlns="http://www.w3.org/2000/svg" width="303.225" height="303.213" viewBox="0 0 303.225 303.213">
  <path id="Pfad_1609" data-name="Pfad 1609" d="M271.23,412.613q6.428-9.786,6.439-18.745a26.8,26.8,0,0,0-5.315-16.686q-5.315-6.986-11.658-8.762t-24.982-1.771H194.872V422.4H240Q264.79,422.4,271.23,412.613Z" transform="translate(-78.967 -296.03)" fill="#03919d"/>
  <path id="Pfad_1610" data-name="Pfad 1610" d="M243.256,376.175H194.872v61.358h45.774q23.455,0,33.119-8.211,9.675-8.195,9.685-22.935,0-12.3-9.314-21.259Q264.843,376.186,243.256,376.175Z" transform="translate(-78.967 -204.493)" fill="#03919d"/>
  <path id="Pfad_1611" data-name="Pfad 1611" d="M183.946,359.991V663.2H487.17V359.991Zm245.314,259.4q-21.625,20.813-70.3,20.814H240.371V385.673H358.959q31.888,0,47.928,7.829a69.751,69.751,0,0,1,26.478,22.351Q443.8,430.4,443.8,451.253q0,42.311-45.87,56.467,26.478,5.967,39.717,23.7t13.239,38.624Q450.89,598.589,429.26,619.392Z" transform="translate(-183.946 -359.991)" fill="#03919d"/>
</svg>
